<svg width="400" height="274" viewBox="0 0 400 274" fill="none" xmlns="http://www.w3.org/2000/svg">
<path d="M117.9 36.1001C52.9 36.1001 0 89.0001 0 154C0 219 52.9 271.9 117.9 271.9C182.9 271.9 235.7 219 235.7 154V77.0001H117.9C75.4 77.0001 40.9 111.5 40.9 154C40.9 196.5 75.4 231 117.9 231C160.4 231 194.9 196.5 194.9 154C194.9 140.9 191.6 128.6 185.8 117.8H161.6C169.8 127.6 174.7 140.3 174.7 154C174.7 185.3 149.3 210.8 117.9 210.8C86.6 210.8 61.1 185.3 61.1 154C61.1 122.7 86.6 97.2001 117.9 97.2001H215.5V154C215.5 207.8 171.7 251.6 117.9 251.6C64.1 251.6 20.3 207.8 20.3 154C20.3 100.2 64.1 56.4001 117.9 56.4001H309.1V117.8H256.4V138H329.3V36.1001H117.9Z" fill="url(#paint0_linear_59_80)"/>
<defs>
<linearGradient id="paint0_linear_59_80" x1="75.8499" y1="268.898" x2="265.211" y2="-29.4871" gradientUnits="userSpaceOnUse">
<stop stop-color="#FF0042" stop-opacity="0.5"/>
<stop offset="1" stop-color="#FF0042"/>
</linearGradient>
</defs>
</svg>
